<?xml version="1.0" encoding="UTF-8" standalone="yes"?><svg xmlns="http://www.w3.org/2000/svg" xmlns:xlink="http://www.w3.org/1999/xlink" height="595pt" style="width:1218px;height:595px;" version="1.1" viewBox="0 0 1218 595" width="1218pt"><defs><filter height="300%" id="f1" width="300%" x="-1" y="-1"><feGaussianBlur result="blurOut" stdDeviation="2.0"/><feColorMatrix in="blurOut" result="blurOut2" type="matrix" values="0 0 0 0 0 0 0 0 0 0 0 0 0 0 0 0 0 0 .4 0"/><feOffset dx="4.0" dy="4.0" in="blurOut2" result="blurOut3"/><feBlend in="SourceGraphic" in2="blurOut3" mode="normal"/></filter></defs><g><polygon fill="#FFFFFF" filter="url(#f1)" points="523.048,24,628.048,24,635.048,46.2969,842.048,46.2969,842.048,340,523.048,340,523.048,24" style="stroke: #000000; stroke-width: 2.0;"/><line style="stroke: #000000; stroke-width: 2.0;" x1="523.048" x2="635.048" y1="46.2969" y2="46.2969"/><text fill="#000000" font-family="sans-serif" font-size="14" font-weight="bold" lengthAdjust="spacingAndGlyphs" textLength="99" x="526.048" y="39.9951">com.mbeddr</text><polygon fill="#FFFFFF" filter="url(#f1)" points="742.048,488,855.048,488,862.048,510.2969,931.048,510.2969,931.048,588,742.048,588,742.048,488" style="stroke: #000000; stroke-width: 2.0;"/><line style="stroke: #000000; stroke-width: 2.0;" x1="742.048" x2="862.048" y1="510.2969" y2="510.2969"/><text fill="#000000" font-family="sans-serif" font-size="14" font-weight="bold" lengthAdjust="spacingAndGlyphs" textLength="107" x="745.048" y="503.9951">jetbrains.mps</text><polygon fill="#FFFFFF" filter="url(#f1)" points="43.0481,364,239.0481,364,246.0481,386.2969,417.048,386.2969,417.048,464,43.0481,464,43.0481,364" style="stroke: #000000; stroke-width: 2.0;"/><line style="stroke: #000000; stroke-width: 2.0;" x1="43.0481" x2="246.0481" y1="386.2969" y2="386.2969"/><text fill="#000000" font-family="sans-serif" font-size="14" font-weight="bold" lengthAdjust="spacingAndGlyphs" textLength="190" x="46.0481" y="379.9951">jetbrains.mps.execution</text><polygon fill="#FFFFFF" filter="url(#f1)" points="441.048,364,636.048,364,643.048,386.2969,647.048,386.2969,647.048,464,441.048,464,441.048,364" style="stroke: #000000; stroke-width: 2.0;"/><line style="stroke: #000000; stroke-width: 2.0;" x1="441.048" x2="643.048" y1="386.2969" y2="386.2969"/><text fill="#000000" font-family="sans-serif" font-size="14" font-weight="bold" lengthAdjust="spacingAndGlyphs" textLength="189" x="444.048" y="379.9951">jetbrains.mps.debugger</text><polygon fill="#FFFFFF" filter="url(#f1)" points="823.048,364,947.048,364,954.048,386.2969,1123.05,386.2969,1123.05,464,823.048,464,823.048,364" style="stroke: #000000; stroke-width: 2.0;"/><line style="stroke: #000000; stroke-width: 2.0;" x1="823.048" x2="954.048" y1="386.2969" y2="386.2969"/><text fill="#000000" font-family="sans-serif" font-size="14" font-weight="bold" lengthAdjust="spacingAndGlyphs" textLength="118" x="826.048" y="379.9951">de.slisson.mps</text><polygon fill="#FFFFFF" filter="url(#f1)" points="272.048,240,440.048,240,447.048,262.2969,451.048,262.2969,451.048,340,272.048,340,272.048,240" style="stroke: #000000; stroke-width: 2.0;"/><line style="stroke: #000000; stroke-width: 2.0;" x1="272.048" x2="447.048" y1="262.2969" y2="262.2969"/><text fill="#000000" font-family="sans-serif" font-size="14" font-weight="bold" lengthAdjust="spacingAndGlyphs" textLength="162" x="275.048" y="255.9951">de.itemis.mps.editor</text><rect fill="#FEFECE" filter="url(#f1)" height="48" style="stroke: #A80036; stroke-width: 1.5;" width="60" x="566.048" y="60"/><ellipse cx="581.048" cy="76" fill="#ADD1B2" rx="11" ry="11" style="stroke: #A80036; stroke-width: 1.0;"/><path d="M583.3918,71.6719 L583.5636,71.75 C583.7824,71.4375 583.9855,71.3438 584.2824,71.3438 C584.5793,71.3438 584.8605,71.4844 585.0168,71.75 C585.1105,71.9063 585.1261,72.0313 585.1261,72.4688 L585.1261,73.8906 C585.1261,74.3125 585.0949,74.5 584.9855,74.6563 C584.8136,74.875 584.548,75.0156 584.2824,75.0156 C584.0636,75.0156 583.8293,74.9063 583.6886,74.7656 C583.548,74.6406 583.5168,74.5156 583.4543,74.1094 C583.3605,73.7031 583.1886,73.4844 582.7043,73.2031 C582.2355,72.9531 581.6261,72.7969 581.048,72.7969 C579.3136,72.7969 578.0636,74.1094 578.0636,75.8906 L578.0636,76.9844 C578.0636,78.6875 579.3605,79.7813 581.4074,79.7813 C582.173,79.7813 582.8605,79.6563 583.2824,79.3906 C583.4699,79.2969 583.4699,79.2969 583.923,78.8125 C584.1105,78.625 584.3136,78.5469 584.5324,78.5469 C585.0011,78.5469 585.3918,78.9375 585.3918,79.3906 C585.3918,79.7813 585.0636,80.2344 584.4855,80.6406 C583.7355,81.1875 582.5793,81.4844 581.3605,81.4844 C578.4699,81.4844 576.3605,79.5938 576.3605,77.0156 L576.3605,75.8906 C576.3605,73.1719 578.3605,71.0938 580.9855,71.0938 C581.8605,71.0938 582.4543,71.2344 583.3918,71.6719 Z "/><text fill="#000000" font-family="sans-serif" font-size="12" lengthAdjust="spacingAndGlyphs" textLength="28" x="595.048" y="80.1543">core</text><line style="stroke: #A80036; stroke-width: 1.5;" x1="567.048" x2="625.048" y1="92" y2="92"/><line style="stroke: #A80036; stroke-width: 1.5;" x1="567.048" x2="625.048" y1="100" y2="100"/><rect fill="#FEFECE" filter="url(#f1)" height="48" style="stroke: #A80036; stroke-width: 1.5;" width="77" x="659.798" y="276"/><ellipse cx="674.798" cy="292" fill="#ADD1B2" rx="11" ry="11" style="stroke: #A80036; stroke-width: 1.0;"/><path d="M677.1418,287.6719 L677.3136,287.75 C677.5324,287.4375 677.7355,287.3438 678.0324,287.3438 C678.3293,287.3438 678.6105,287.4844 678.7668,287.75 C678.8605,287.9063 678.8761,288.0313 678.8761,288.4688 L678.8761,289.8906 C678.8761,290.3125 678.8449,290.5 678.7355,290.6563 C678.5636,290.875 678.298,291.0156 678.0324,291.0156 C677.8136,291.0156 677.5793,290.9063 677.4386,290.7656 C677.298,290.6406 677.2668,290.5156 677.2043,290.1094 C677.1105,289.7031 676.9386,289.4844 676.4543,289.2031 C675.9855,288.9531 675.3761,288.7969 674.798,288.7969 C673.0636,288.7969 671.8136,290.1094 671.8136,291.8906 L671.8136,292.9844 C671.8136,294.6875 673.1105,295.7813 675.1574,295.7813 C675.923,295.7813 676.6105,295.6563 677.0324,295.3906 C677.2199,295.2969 677.2199,295.2969 677.673,294.8125 C677.8605,294.625 678.0636,294.5469 678.2824,294.5469 C678.7511,294.5469 679.1418,294.9375 679.1418,295.3906 C679.1418,295.7813 678.8136,296.2344 678.2355,296.6406 C677.4855,297.1875 676.3293,297.4844 675.1105,297.4844 C672.2199,297.4844 670.1105,295.5938 670.1105,293.0156 L670.1105,291.8906 C670.1105,289.1719 672.1105,287.0938 674.7355,287.0938 C675.6105,287.0938 676.2043,287.2344 677.1418,287.6719 Z "/><text fill="#000000" font-family="sans-serif" font-size="12" lengthAdjust="spacingAndGlyphs" textLength="45" x="688.798" y="296.1543">mpsutil</text><line style="stroke: #A80036; stroke-width: 1.5;" x1="660.798" x2="735.798" y1="308" y2="308"/><line style="stroke: #A80036; stroke-width: 1.5;" x1="660.798" x2="735.798" y1="316" y2="316"/><rect fill="#FEFECE" filter="url(#f1)" height="48" style="stroke: #A80036; stroke-width: 1.5;" width="85" x="539.798" y="276"/><ellipse cx="554.798" cy="292" fill="#ADD1B2" rx="11" ry="11" style="stroke: #A80036; stroke-width: 1.0;"/><path d="M557.1418,287.6719 L557.3136,287.75 C557.5324,287.4375 557.7355,287.3438 558.0324,287.3438 C558.3293,287.3438 558.6105,287.4844 558.7668,287.75 C558.8605,287.9063 558.8761,288.0313 558.8761,288.4688 L558.8761,289.8906 C558.8761,290.3125 558.8449,290.5 558.7355,290.6563 C558.5636,290.875 558.298,291.0156 558.0324,291.0156 C557.8136,291.0156 557.5793,290.9063 557.4386,290.7656 C557.298,290.6406 557.2668,290.5156 557.2043,290.1094 C557.1105,289.7031 556.9386,289.4844 556.4543,289.2031 C555.9855,288.9531 555.3761,288.7969 554.798,288.7969 C553.0636,288.7969 551.8136,290.1094 551.8136,291.8906 L551.8136,292.9844 C551.8136,294.6875 553.1105,295.7813 555.1574,295.7813 C555.923,295.7813 556.6105,295.6563 557.0324,295.3906 C557.2199,295.2969 557.2199,295.2969 557.673,294.8125 C557.8605,294.625 558.0636,294.5469 558.2824,294.5469 C558.7511,294.5469 559.1418,294.9375 559.1418,295.3906 C559.1418,295.7813 558.8136,296.2344 558.2355,296.6406 C557.4855,297.1875 556.3293,297.4844 555.1105,297.4844 C552.2199,297.4844 550.1105,295.5938 550.1105,293.0156 L550.1105,291.8906 C550.1105,289.1719 552.1105,287.0938 554.7355,287.0938 C555.6105,287.0938 556.2043,287.2344 557.1418,287.6719 Z "/><text fill="#000000" font-family="sans-serif" font-size="12" lengthAdjust="spacingAndGlyphs" textLength="53" x="568.798" y="296.1543">spawner</text><line style="stroke: #A80036; stroke-width: 1.5;" x1="540.798" x2="623.798" y1="308" y2="308"/><line style="stroke: #A80036; stroke-width: 1.5;" x1="540.798" x2="623.798" y1="316" y2="316"/><rect fill="#FEFECE" filter="url(#f1)" height="48" style="stroke: #A80036; stroke-width: 1.5;" width="93" x="576.798" y="168"/><ellipse cx="591.798" cy="184" fill="#ADD1B2" rx="11" ry="11" style="stroke: #A80036; stroke-width: 1.0;"/><path d="M594.1418,179.6719 L594.3136,179.75 C594.5324,179.4375 594.7355,179.3438 595.0324,179.3438 C595.3293,179.3438 595.6105,179.4844 595.7668,179.75 C595.8605,179.9063 595.8761,180.0313 595.8761,180.4688 L595.8761,181.8906 C595.8761,182.3125 595.8449,182.5 595.7355,182.6563 C595.5636,182.875 595.298,183.0156 595.0324,183.0156 C594.8136,183.0156 594.5793,182.9063 594.4386,182.7656 C594.298,182.6406 594.2668,182.5156 594.2043,182.1094 C594.1105,181.7031 593.9386,181.4844 593.4543,181.2031 C592.9855,180.9531 592.3761,180.7969 591.798,180.7969 C590.0636,180.7969 588.8136,182.1094 588.8136,183.8906 L588.8136,184.9844 C588.8136,186.6875 590.1105,187.7813 592.1574,187.7813 C592.923,187.7813 593.6105,187.6563 594.0324,187.3906 C594.2199,187.2969 594.2199,187.2969 594.673,186.8125 C594.8605,186.625 595.0636,186.5469 595.2824,186.5469 C595.7511,186.5469 596.1418,186.9375 596.1418,187.3906 C596.1418,187.7813 595.8136,188.2344 595.2355,188.6406 C594.4855,189.1875 593.3293,189.4844 592.1105,189.4844 C589.2199,189.4844 587.1105,187.5938 587.1105,185.0156 L587.1105,183.8906 C587.1105,181.1719 589.1105,179.0938 591.7355,179.0938 C592.6105,179.0938 593.2043,179.2344 594.1418,179.6719 Z "/><text fill="#000000" font-family="sans-serif" font-size="12" lengthAdjust="spacingAndGlyphs" textLength="61" x="605.798" y="188.1543">debugger</text><line style="stroke: #A80036; stroke-width: 1.5;" x1="577.798" x2="668.798" y1="200" y2="200"/><line style="stroke: #A80036; stroke-width: 1.5;" x1="577.798" x2="668.798" y1="208" y2="208"/><rect fill="#FEFECE" filter="url(#f1)" height="48" style="stroke: #A80036; stroke-width: 1.5;" width="84" x="742.048" y="168"/><ellipse cx="757.048" cy="184" fill="#ADD1B2" rx="11" ry="11" style="stroke: #A80036; stroke-width: 1.0;"/><path d="M759.3918,179.6719 L759.5636,179.75 C759.7824,179.4375 759.9855,179.3438 760.2824,179.3438 C760.5793,179.3438 760.8605,179.4844 761.0168,179.75 C761.1105,179.9063 761.1261,180.0313 761.1261,180.4688 L761.1261,181.8906 C761.1261,182.3125 761.0949,182.5 760.9855,182.6563 C760.8136,182.875 760.548,183.0156 760.2824,183.0156 C760.0636,183.0156 759.8293,182.9063 759.6886,182.7656 C759.548,182.6406 759.5168,182.5156 759.4543,182.1094 C759.3605,181.7031 759.1886,181.4844 758.7043,181.2031 C758.2355,180.9531 757.6261,180.7969 757.048,180.7969 C755.3136,180.7969 754.0636,182.1094 754.0636,183.8906 L754.0636,184.9844 C754.0636,186.6875 755.3605,187.7813 757.4074,187.7813 C758.173,187.7813 758.8605,187.6563 759.2824,187.3906 C759.4699,187.2969 759.4699,187.2969 759.923,186.8125 C760.1105,186.625 760.3136,186.5469 760.5324,186.5469 C761.0011,186.5469 761.3918,186.9375 761.3918,187.3906 C761.3918,187.7813 761.0636,188.2344 760.4855,188.6406 C759.7355,189.1875 758.5793,189.4844 757.3605,189.4844 C754.4699,189.4844 752.3605,187.5938 752.3605,185.0156 L752.3605,183.8906 C752.3605,181.1719 754.3605,179.0938 756.9855,179.0938 C757.8605,179.0938 758.4543,179.2344 759.3918,179.6719 Z "/><text fill="#000000" font-family="sans-serif" font-size="12" lengthAdjust="spacingAndGlyphs" textLength="52" x="771.048" y="188.1543">platform</text><line style="stroke: #A80036; stroke-width: 1.5;" x1="743.048" x2="825.048" y1="200" y2="200"/><line style="stroke: #A80036; stroke-width: 1.5;" x1="743.048" x2="825.048" y1="208" y2="208"/><rect fill="#FEFECE" filter="url(#f1)" height="48" style="stroke: #A80036; stroke-width: 1.5;" width="60" x="855.048" y="524"/><ellipse cx="870.048" cy="540" fill="#ADD1B2" rx="11" ry="11" style="stroke: #A80036; stroke-width: 1.0;"/><path d="M872.3918,535.6719 L872.5636,535.75 C872.7824,535.4375 872.9855,535.3438 873.2824,535.3438 C873.5793,535.3438 873.8605,535.4844 874.0168,535.75 C874.1105,535.9063 874.1261,536.0313 874.1261,536.4688 L874.1261,537.8906 C874.1261,538.3125 874.0949,538.5 873.9855,538.6563 C873.8136,538.875 873.548,539.0156 873.2824,539.0156 C873.0636,539.0156 872.8293,538.9063 872.6886,538.7656 C872.548,538.6406 872.5168,538.5156 872.4543,538.1094 C872.3605,537.7031 872.1886,537.4844 871.7043,537.2031 C871.2355,536.9531 870.6261,536.7969 870.048,536.7969 C868.3136,536.7969 867.0636,538.1094 867.0636,539.8906 L867.0636,540.9844 C867.0636,542.6875 868.3605,543.7813 870.4074,543.7813 C871.173,543.7813 871.8605,543.6563 872.2824,543.3906 C872.4699,543.2969 872.4699,543.2969 872.923,542.8125 C873.1105,542.625 873.3136,542.5469 873.5324,542.5469 C874.0011,542.5469 874.3918,542.9375 874.3918,543.3906 C874.3918,543.7813 874.0636,544.2344 873.4855,544.6406 C872.7355,545.1875 871.5793,545.4844 870.3605,545.4844 C867.4699,545.4844 865.3605,543.5938 865.3605,541.0156 L865.3605,539.8906 C865.3605,537.1719 867.3605,535.0938 869.9855,535.0938 C870.8605,535.0938 871.4543,535.2344 872.3918,535.6719 Z "/><text fill="#000000" font-family="sans-serif" font-size="12" lengthAdjust="spacingAndGlyphs" textLength="28" x="884.048" y="544.1543">core</text><line style="stroke: #A80036; stroke-width: 1.5;" x1="856.048" x2="914.048" y1="556" y2="556"/><line style="stroke: #A80036; stroke-width: 1.5;" x1="856.048" x2="914.048" y1="564" y2="564"/><rect fill="#FEFECE" filter="url(#f1)" height="48" style="stroke: #A80036; stroke-width: 1.5;" width="62" x="758.048" y="524"/><ellipse cx="773.048" cy="540" fill="#ADD1B2" rx="11" ry="11" style="stroke: #A80036; stroke-width: 1.0;"/><path d="M775.3918,535.6719 L775.5636,535.75 C775.7824,535.4375 775.9855,535.3438 776.2824,535.3438 C776.5793,535.3438 776.8605,535.4844 777.0168,535.75 C777.1105,535.9063 777.1261,536.0313 777.1261,536.4688 L777.1261,537.8906 C777.1261,538.3125 777.0949,538.5 776.9855,538.6563 C776.8136,538.875 776.548,539.0156 776.2824,539.0156 C776.0636,539.0156 775.8293,538.9063 775.6886,538.7656 C775.548,538.6406 775.5168,538.5156 775.4543,538.1094 C775.3605,537.7031 775.1886,537.4844 774.7043,537.2031 C774.2355,536.9531 773.6261,536.7969 773.048,536.7969 C771.3136,536.7969 770.0636,538.1094 770.0636,539.8906 L770.0636,540.9844 C770.0636,542.6875 771.3605,543.7813 773.4074,543.7813 C774.173,543.7813 774.8605,543.6563 775.2824,543.3906 C775.4699,543.2969 775.4699,543.2969 775.923,542.8125 C776.1105,542.625 776.3136,542.5469 776.5324,542.5469 C777.0011,542.5469 777.3918,542.9375 777.3918,543.3906 C777.3918,543.7813 777.0636,544.2344 776.4855,544.6406 C775.7355,545.1875 774.5793,545.4844 773.3605,545.4844 C770.4699,545.4844 768.3605,543.5938 768.3605,541.0156 L768.3605,539.8906 C768.3605,537.1719 770.3605,535.0938 772.9855,535.0938 C773.8605,535.0938 774.4543,535.2344 775.3918,535.6719 Z "/><text fill="#000000" font-family="sans-serif" font-size="12" lengthAdjust="spacingAndGlyphs" textLength="30" x="787.048" y="544.1543">build</text><line style="stroke: #A80036; stroke-width: 1.5;" x1="759.048" x2="819.048" y1="556" y2="556"/><line style="stroke: #A80036; stroke-width: 1.5;" x1="759.048" x2="819.048" y1="564" y2="564"/><rect fill="#FEFECE" filter="url(#f1)" height="48" style="stroke: #A80036; stroke-width: 1.5;" width="98" x="59.0481" y="400"/><ellipse cx="74.0481" cy="416" fill="#ADD1B2" rx="11" ry="11" style="stroke: #A80036; stroke-width: 1.0;"/><path d="M76.3919,411.6719 L76.5637,411.75 C76.7825,411.4375 76.9856,411.3438 77.2825,411.3438 C77.5794,411.3438 77.8606,411.4844 78.0169,411.75 C78.1106,411.9063 78.1262,412.0313 78.1262,412.4688 L78.1262,413.8906 C78.1262,414.3125 78.095,414.5 77.9856,414.6563 C77.8137,414.875 77.5481,415.0156 77.2825,415.0156 C77.0637,415.0156 76.8294,414.9063 76.6887,414.7656 C76.5481,414.6406 76.5169,414.5156 76.4544,414.1094 C76.3606,413.7031 76.1887,413.4844 75.7044,413.2031 C75.2356,412.9531 74.6262,412.7969 74.0481,412.7969 C72.3137,412.7969 71.0637,414.1094 71.0637,415.8906 L71.0637,416.9844 C71.0637,418.6875 72.3606,419.7813 74.4075,419.7813 C75.1731,419.7813 75.8606,419.6563 76.2825,419.3906 C76.47,419.2969 76.47,419.2969 76.9231,418.8125 C77.1106,418.625 77.3137,418.5469 77.5325,418.5469 C78.0012,418.5469 78.3919,418.9375 78.3919,419.3906 C78.3919,419.7813 78.0637,420.2344 77.4856,420.6406 C76.7356,421.1875 75.5794,421.4844 74.3606,421.4844 C71.47,421.4844 69.3606,419.5938 69.3606,417.0156 L69.3606,415.8906 C69.3606,413.1719 71.3606,411.0938 73.9856,411.0938 C74.8606,411.0938 75.4544,411.2344 76.3919,411.6719 Z "/><text fill="#000000" font-family="sans-serif" font-size="12" lengthAdjust="spacingAndGlyphs" textLength="66" x="88.0481" y="420.1543">languages</text><line style="stroke: #A80036; stroke-width: 1.5;" x1="60.0481" x2="156.0481" y1="432" y2="432"/><line style="stroke: #A80036; stroke-width: 1.5;" x1="60.0481" x2="156.0481" y1="440" y2="440"/><rect fill="#FEFECE" filter="url(#f1)" height="48" style="stroke: #A80036; stroke-width: 1.5;" width="51" x="192.798" y="400"/><ellipse cx="207.798" cy="416" fill="#ADD1B2" rx="11" ry="11" style="stroke: #A80036; stroke-width: 1.0;"/><path d="M210.1418,411.6719 L210.3136,411.75 C210.5324,411.4375 210.7355,411.3438 211.0324,411.3438 C211.3293,411.3438 211.6105,411.4844 211.7668,411.75 C211.8605,411.9063 211.8761,412.0313 211.8761,412.4688 L211.8761,413.8906 C211.8761,414.3125 211.8449,414.5 211.7355,414.6563 C211.5636,414.875 211.298,415.0156 211.0324,415.0156 C210.8136,415.0156 210.5793,414.9063 210.4386,414.7656 C210.298,414.6406 210.2668,414.5156 210.2043,414.1094 C210.1105,413.7031 209.9386,413.4844 209.4543,413.2031 C208.9855,412.9531 208.3761,412.7969 207.798,412.7969 C206.0636,412.7969 204.8136,414.1094 204.8136,415.8906 L204.8136,416.9844 C204.8136,418.6875 206.1105,419.7813 208.1574,419.7813 C208.923,419.7813 209.6105,419.6563 210.0324,419.3906 C210.2199,419.2969 210.2199,419.2969 210.673,418.8125 C210.8605,418.625 211.0636,418.5469 211.2824,418.5469 C211.7511,418.5469 212.1418,418.9375 212.1418,419.3906 C212.1418,419.7813 211.8136,420.2344 211.2355,420.6406 C210.4855,421.1875 209.3293,421.4844 208.1105,421.4844 C205.2199,421.4844 203.1105,419.5938 203.1105,417.0156 L203.1105,415.8906 C203.1105,413.1719 205.1105,411.0938 207.7355,411.0938 C208.6105,411.0938 209.2043,411.2344 210.1418,411.6719 Z "/><text fill="#000000" font-family="sans-serif" font-size="12" lengthAdjust="spacingAndGlyphs" textLength="19" x="221.798" y="420.1543">api</text><line style="stroke: #A80036; stroke-width: 1.5;" x1="193.798" x2="242.798" y1="432" y2="432"/><line style="stroke: #A80036; stroke-width: 1.5;" x1="193.798" x2="242.798" y1="440" y2="440"/><rect fill="#FEFECE" filter="url(#f1)" height="48" style="stroke: #A80036; stroke-width: 1.5;" width="122" x="279.048" y="400"/><ellipse cx="294.048" cy="416" fill="#ADD1B2" rx="11" ry="11" style="stroke: #A80036; stroke-width: 1.0;"/><path d="M296.3918,411.6719 L296.5636,411.75 C296.7824,411.4375 296.9855,411.3438 297.2824,411.3438 C297.5793,411.3438 297.8605,411.4844 298.0168,411.75 C298.1105,411.9063 298.1261,412.0313 298.1261,412.4688 L298.1261,413.8906 C298.1261,414.3125 298.0949,414.5 297.9855,414.6563 C297.8136,414.875 297.548,415.0156 297.2824,415.0156 C297.0636,415.0156 296.8293,414.9063 296.6886,414.7656 C296.548,414.6406 296.5168,414.5156 296.4543,414.1094 C296.3605,413.7031 296.1886,413.4844 295.7043,413.2031 C295.2355,412.9531 294.6261,412.7969 294.048,412.7969 C292.3136,412.7969 291.0636,414.1094 291.0636,415.8906 L291.0636,416.9844 C291.0636,418.6875 292.3605,419.7813 294.4074,419.7813 C295.173,419.7813 295.8605,419.6563 296.2824,419.3906 C296.4699,419.2969 296.4699,419.2969 296.923,418.8125 C297.1105,418.625 297.3136,418.5469 297.5324,418.5469 C298.0011,418.5469 298.3918,418.9375 298.3918,419.3906 C298.3918,419.7813 298.0636,420.2344 297.4855,420.6406 C296.7355,421.1875 295.5793,421.4844 294.3605,421.4844 C291.4699,421.4844 289.3605,419.5938 289.3605,417.0156 L289.3605,415.8906 C289.3605,413.1719 291.3605,411.0938 293.9855,411.0938 C294.8605,411.0938 295.4543,411.2344 296.3918,411.6719 Z "/><text fill="#000000" font-family="sans-serif" font-size="12" lengthAdjust="spacingAndGlyphs" textLength="90" x="308.048" y="420.1543">configurations</text><line style="stroke: #A80036; stroke-width: 1.5;" x1="280.048" x2="400.048" y1="432" y2="432"/><line style="stroke: #A80036; stroke-width: 1.5;" x1="280.048" x2="400.048" y1="440" y2="440"/><rect fill="#FEFECE" filter="url(#f1)" height="48" style="stroke: #A80036; stroke-width: 1.5;" width="51" x="484.798" y="400"/><ellipse cx="499.798" cy="416" fill="#ADD1B2" rx="11" ry="11" style="stroke: #A80036; stroke-width: 1.0;"/><path d="M502.1418,411.6719 L502.3136,411.75 C502.5324,411.4375 502.7355,411.3438 503.0324,411.3438 C503.3293,411.3438 503.6105,411.4844 503.7668,411.75 C503.8605,411.9063 503.8761,412.0313 503.8761,412.4688 L503.8761,413.8906 C503.8761,414.3125 503.8449,414.5 503.7355,414.6563 C503.5636,414.875 503.298,415.0156 503.0324,415.0156 C502.8136,415.0156 502.5793,414.9063 502.4386,414.7656 C502.298,414.6406 502.2668,414.5156 502.2043,414.1094 C502.1105,413.7031 501.9386,413.4844 501.4543,413.2031 C500.9855,412.9531 500.3761,412.7969 499.798,412.7969 C498.0636,412.7969 496.8136,414.1094 496.8136,415.8906 L496.8136,416.9844 C496.8136,418.6875 498.1105,419.7813 500.1574,419.7813 C500.923,419.7813 501.6105,419.6563 502.0324,419.3906 C502.2199,419.2969 502.2199,419.2969 502.673,418.8125 C502.8605,418.625 503.0636,418.5469 503.2824,418.5469 C503.7511,418.5469 504.1418,418.9375 504.1418,419.3906 C504.1418,419.7813 503.8136,420.2344 503.2355,420.6406 C502.4855,421.1875 501.3293,421.4844 500.1105,421.4844 C497.2199,421.4844 495.1105,419.5938 495.1105,417.0156 L495.1105,415.8906 C495.1105,413.1719 497.1105,411.0938 499.7355,411.0938 C500.6105,411.0938 501.2043,411.2344 502.1418,411.6719 Z "/><text fill="#000000" font-family="sans-serif" font-size="12" lengthAdjust="spacingAndGlyphs" textLength="19" x="513.798" y="420.1543">api</text><line style="stroke: #A80036; stroke-width: 1.5;" x1="485.798" x2="534.798" y1="432" y2="432"/><line style="stroke: #A80036; stroke-width: 1.5;" x1="485.798" x2="534.798" y1="440" y2="440"/><rect fill="#FEFECE" filter="url(#f1)" height="48" style="stroke: #A80036; stroke-width: 1.5;" width="57" x="570.798" y="400"/><ellipse cx="585.798" cy="416" fill="#ADD1B2" rx="11" ry="11" style="stroke: #A80036; stroke-width: 1.0;"/><path d="M588.1418,411.6719 L588.3136,411.75 C588.5324,411.4375 588.7355,411.3438 589.0324,411.3438 C589.3293,411.3438 589.6105,411.4844 589.7668,411.75 C589.8605,411.9063 589.8761,412.0313 589.8761,412.4688 L589.8761,413.8906 C589.8761,414.3125 589.8449,414.5 589.7355,414.6563 C589.5636,414.875 589.298,415.0156 589.0324,415.0156 C588.8136,415.0156 588.5793,414.9063 588.4386,414.7656 C588.298,414.6406 588.2668,414.5156 588.2043,414.1094 C588.1105,413.7031 587.9386,413.4844 587.4543,413.2031 C586.9855,412.9531 586.3761,412.7969 585.798,412.7969 C584.0636,412.7969 582.8136,414.1094 582.8136,415.8906 L582.8136,416.9844 C582.8136,418.6875 584.1105,419.7813 586.1574,419.7813 C586.923,419.7813 587.6105,419.6563 588.0324,419.3906 C588.2199,419.2969 588.2199,419.2969 588.673,418.8125 C588.8605,418.625 589.0636,418.5469 589.2824,418.5469 C589.7511,418.5469 590.1418,418.9375 590.1418,419.3906 C590.1418,419.7813 589.8136,420.2344 589.2355,420.6406 C588.4855,421.1875 587.3293,421.4844 586.1105,421.4844 C583.2199,421.4844 581.1105,419.5938 581.1105,417.0156 L581.1105,415.8906 C581.1105,413.1719 583.1105,411.0938 585.7355,411.0938 C586.6105,411.0938 587.2043,411.2344 588.1418,411.6719 Z "/><text fill="#000000" font-family="sans-serif" font-size="12" lengthAdjust="spacingAndGlyphs" textLength="25" x="599.798" y="420.1543">java</text><line style="stroke: #A80036; stroke-width: 1.5;" x1="571.798" x2="626.798" y1="432" y2="432"/><line style="stroke: #A80036; stroke-width: 1.5;" x1="571.798" x2="626.798" y1="440" y2="440"/><rect fill="#FEFECE" filter="url(#f1)" height="48" style="stroke: #A80036; stroke-width: 1.5;" width="46" x="954.048" y="400"/><ellipse cx="969.048" cy="416" fill="#ADD1B2" rx="11" ry="11" style="stroke: #A80036; stroke-width: 1.0;"/><path d="M971.3918,411.6719 L971.5636,411.75 C971.7824,411.4375 971.9855,411.3438 972.2824,411.3438 C972.5793,411.3438 972.8605,411.4844 973.0168,411.75 C973.1105,411.9063 973.1261,412.0313 973.1261,412.4688 L973.1261,413.8906 C973.1261,414.3125 973.0949,414.5 972.9855,414.6563 C972.8136,414.875 972.548,415.0156 972.2824,415.0156 C972.0636,415.0156 971.8293,414.9063 971.6886,414.7656 C971.548,414.6406 971.5168,414.5156 971.4543,414.1094 C971.3605,413.7031 971.1886,413.4844 970.7043,413.2031 C970.2355,412.9531 969.6261,412.7969 969.048,412.7969 C967.3136,412.7969 966.0636,414.1094 966.0636,415.8906 L966.0636,416.9844 C966.0636,418.6875 967.3605,419.7813 969.4074,419.7813 C970.173,419.7813 970.8605,419.6563 971.2824,419.3906 C971.4699,419.2969 971.4699,419.2969 971.923,418.8125 C972.1105,418.625 972.3136,418.5469 972.5324,418.5469 C973.0011,418.5469 973.3918,418.9375 973.3918,419.3906 C973.3918,419.7813 973.0636,420.2344 972.4855,420.6406 C971.7355,421.1875 970.5793,421.4844 969.3605,421.4844 C966.4699,421.4844 964.3605,419.5938 964.3605,417.0156 L964.3605,415.8906 C964.3605,413.1719 966.3605,411.0938 968.9855,411.0938 C969.8605,411.0938 970.4543,411.2344 971.3918,411.6719 Z "/><text fill="#000000" font-family="sans-serif" font-size="12" lengthAdjust="spacingAndGlyphs" textLength="14" x="983.048" y="420.1543">all</text><line style="stroke: #A80036; stroke-width: 1.5;" x1="955.048" x2="999.048" y1="432" y2="432"/><line style="stroke: #A80036; stroke-width: 1.5;" x1="955.048" x2="999.048" y1="440" y2="440"/><rect fill="#FEFECE" filter="url(#f1)" height="48" style="stroke: #A80036; stroke-width: 1.5;" width="79" x="839.798" y="400"/><ellipse cx="854.798" cy="416" fill="#ADD1B2" rx="11" ry="11" style="stroke: #A80036; stroke-width: 1.0;"/><path d="M857.1418,411.6719 L857.3136,411.75 C857.5324,411.4375 857.7355,411.3438 858.0324,411.3438 C858.3293,411.3438 858.6105,411.4844 858.7668,411.75 C858.8605,411.9063 858.8761,412.0313 858.8761,412.4688 L858.8761,413.8906 C858.8761,414.3125 858.8449,414.5 858.7355,414.6563 C858.5636,414.875 858.298,415.0156 858.0324,415.0156 C857.8136,415.0156 857.5793,414.9063 857.4386,414.7656 C857.298,414.6406 857.2668,414.5156 857.2043,414.1094 C857.1105,413.7031 856.9386,413.4844 856.4543,413.2031 C855.9855,412.9531 855.3761,412.7969 854.798,412.7969 C853.0636,412.7969 851.8136,414.1094 851.8136,415.8906 L851.8136,416.9844 C851.8136,418.6875 853.1105,419.7813 855.1574,419.7813 C855.923,419.7813 856.6105,419.6563 857.0324,419.3906 C857.2199,419.2969 857.2199,419.2969 857.673,418.8125 C857.8605,418.625 858.0636,418.5469 858.2824,418.5469 C858.7511,418.5469 859.1418,418.9375 859.1418,419.3906 C859.1418,419.7813 858.8136,420.2344 858.2355,420.6406 C857.4855,421.1875 856.3293,421.4844 855.1105,421.4844 C852.2199,421.4844 850.1105,419.5938 850.1105,417.0156 L850.1105,415.8906 C850.1105,413.1719 852.1105,411.0938 854.7355,411.0938 C855.6105,411.0938 856.2043,411.2344 857.1418,411.6719 Z "/><text fill="#000000" font-family="sans-serif" font-size="12" lengthAdjust="spacingAndGlyphs" textLength="47" x="868.798" y="420.1543">richtext</text><line style="stroke: #A80036; stroke-width: 1.5;" x1="840.798" x2="917.798" y1="432" y2="432"/><line style="stroke: #A80036; stroke-width: 1.5;" x1="840.798" x2="917.798" y1="440" y2="440"/><rect fill="#FEFECE" filter="url(#f1)" height="48" style="stroke: #A80036; stroke-width: 1.5;" width="71" x="1035.8" y="400"/><ellipse cx="1050.8" cy="416" fill="#ADD1B2" rx="11" ry="11" style="stroke: #A80036; stroke-width: 1.0;"/><path d="M1053.1438,411.6719 L1053.3156,411.75 C1053.5344,411.4375 1053.7375,411.3438 1054.0344,411.3438 C1054.3313,411.3438 1054.6125,411.4844 1054.7688,411.75 C1054.8625,411.9063 1054.8781,412.0313 1054.8781,412.4688 L1054.8781,413.8906 C1054.8781,414.3125 1054.8469,414.5 1054.7375,414.6563 C1054.5656,414.875 1054.3,415.0156 1054.0344,415.0156 C1053.8156,415.0156 1053.5813,414.9063 1053.4406,414.7656 C1053.3,414.6406 1053.2688,414.5156 1053.2063,414.1094 C1053.1125,413.7031 1052.9406,413.4844 1052.4563,413.2031 C1051.9875,412.9531 1051.3781,412.7969 1050.8,412.7969 C1049.0656,412.7969 1047.8156,414.1094 1047.8156,415.8906 L1047.8156,416.9844 C1047.8156,418.6875 1049.1125,419.7813 1051.1594,419.7813 C1051.925,419.7813 1052.6125,419.6563 1053.0344,419.3906 C1053.2219,419.2969 1053.2219,419.2969 1053.675,418.8125 C1053.8625,418.625 1054.0656,418.5469 1054.2844,418.5469 C1054.7531,418.5469 1055.1438,418.9375 1055.1438,419.3906 C1055.1438,419.7813 1054.8156,420.2344 1054.2375,420.6406 C1053.4875,421.1875 1052.3313,421.4844 1051.1125,421.4844 C1048.2219,421.4844 1046.1125,419.5938 1046.1125,417.0156 L1046.1125,415.8906 C1046.1125,413.1719 1048.1125,411.0938 1050.7375,411.0938 C1051.6125,411.0938 1052.2063,411.2344 1053.1438,411.6719 Z "/><text fill="#000000" font-family="sans-serif" font-size="12" lengthAdjust="spacingAndGlyphs" textLength="39" x="1064.8" y="420.1543">tables</text><line style="stroke: #A80036; stroke-width: 1.5;" x1="1036.8" x2="1105.8" y1="432" y2="432"/><line style="stroke: #A80036; stroke-width: 1.5;" x1="1036.8" x2="1105.8" y1="440" y2="440"/><rect fill="#FEFECE" filter="url(#f1)" height="48" style="stroke: #A80036; stroke-width: 1.5;" width="59" x="373.798" y="276"/><ellipse cx="388.798" cy="292" fill="#ADD1B2" rx="11" ry="11" style="stroke: #A80036; stroke-width: 1.0;"/><path d="M391.1418,287.6719 L391.3136,287.75 C391.5324,287.4375 391.7355,287.3438 392.0324,287.3438 C392.3293,287.3438 392.6105,287.4844 392.7668,287.75 C392.8605,287.9063 392.8761,288.0313 392.8761,288.4688 L392.8761,289.8906 C392.8761,290.3125 392.8449,290.5 392.7355,290.6563 C392.5636,290.875 392.298,291.0156 392.0324,291.0156 C391.8136,291.0156 391.5793,290.9063 391.4386,290.7656 C391.298,290.6406 391.2668,290.5156 391.2043,290.1094 C391.1105,289.7031 390.9386,289.4844 390.4543,289.2031 C389.9855,288.9531 389.3761,288.7969 388.798,288.7969 C387.0636,288.7969 385.8136,290.1094 385.8136,291.8906 L385.8136,292.9844 C385.8136,294.6875 387.1105,295.7813 389.1574,295.7813 C389.923,295.7813 390.6105,295.6563 391.0324,295.3906 C391.2199,295.2969 391.2199,295.2969 391.673,294.8125 C391.8605,294.625 392.0636,294.5469 392.2824,294.5469 C392.7511,294.5469 393.1418,294.9375 393.1418,295.3906 C393.1418,295.7813 392.8136,296.2344 392.2355,296.6406 C391.4855,297.1875 390.3293,297.4844 389.1105,297.4844 C386.2199,297.4844 384.1105,295.5938 384.1105,293.0156 L384.1105,291.8906 C384.1105,289.1719 386.1105,287.0938 388.7355,287.0938 C389.6105,287.0938 390.2043,287.2344 391.1418,287.6719 Z "/><text fill="#000000" font-family="sans-serif" font-size="12" lengthAdjust="spacingAndGlyphs" textLength="27" x="402.798" y="296.1543">bool</text><line style="stroke: #A80036; stroke-width: 1.5;" x1="374.798" x2="431.798" y1="308" y2="308"/><line style="stroke: #A80036; stroke-width: 1.5;" x1="374.798" x2="431.798" y1="316" y2="316"/><path d="M565.991,92.29 C426.566,127.324 -142.651,284.42 43.0481,472 C58.5658,487.675 817.48,469.822 837.048,480 C853.154,488.377 865.086,504.9075 873.025,519.4521 " fill="none" style="stroke: #A80036; stroke-width: 1.0; stroke-dasharray: 7.0,7.0;"/><polygon fill="#A80036" points="875.36,523.8909,874.7098,514.0635,873.0321,519.4659,867.6297,517.7882,875.36,523.8909" style="stroke: #A80036; stroke-width: 1.0;"/><path d="M565.805,101.137 C494.219,140.019 310.274,243.998 175.048,356 C160.238,368.267 144.981,383.303 132.776,396.02 " fill="none" style="stroke: #A80036; stroke-width: 1.0; stroke-dasharray: 7.0,7.0;"/><polygon fill="#A80036" points="129.089,399.887,138.1945,396.1333,132.5392,396.2682,132.4044,390.6129,129.089,399.887" style="stroke: #A80036; stroke-width: 1.0;"/><path d="M626.184,103.931 C646.826,118.677 672.781,141.127 686.048,168 C702.067,200.446 702.854,242.908 701.127,270.56 " fill="none" style="stroke: #A80036; stroke-width: 1.0; stroke-dasharray: 7.0,7.0;"/><polygon fill="#A80036" points="700.752,275.886,705.3747,267.1894,701.1035,270.8984,697.3945,266.6271,700.752,275.886" style="stroke: #A80036; stroke-width: 1.0;"/><path d="M582.6,108.073 C573.977,124.25 563.58,146.705 559.048,168 C551.537,203.295 561.767,244.315 570.877,270.918 " fill="none" style="stroke: #A80036; stroke-width: 1.0; stroke-dasharray: 7.0,7.0;"/><polygon fill="#A80036" points="572.561,275.712,573.3519,265.8949,570.9038,270.9946,565.8041,268.5465,572.561,275.712" style="stroke: #A80036; stroke-width: 1.0;"/><path d="M601.907,108 C605.983,124.003 611.445,145.446 615.796,162.528 " fill="none" style="stroke: #A80036; stroke-width: 1.0; stroke-dasharray: 7.0,7.0;"/><polygon fill="#A80036" points="617.108,167.678,618.762,157.969,615.8735,162.8328,611.0097,159.9443,617.108,167.678" style="stroke: #A80036; stroke-width: 1.0;"/><path d="M626.254,102.031 C656.551,119.113 703.589,145.635 738.433,165.281 " fill="none" style="stroke: #A80036; stroke-width: 1.0; stroke-dasharray: 7.0,7.0;"/><polygon fill="#A80036" points="743.05,167.884,737.1746,159.9796,738.6945,165.4284,733.2457,166.9483,743.05,167.884" style="stroke: #A80036; stroke-width: 1.0;"/><path d="M731.004,324.12 C742.4,333.178 754.654,344.223 764.048,356 C800.116,401.219 783.155,430.118 823.048,472 C827.991,477.189 831.728,475.199 837.048,480 C849.646,491.369 860.873,506.5829 869.296,519.6397 " fill="none" style="stroke: #A80036; stroke-width: 1.0; stroke-dasharray: 7.0,7.0;"/><polygon fill="#A80036" points="872.043,523.9763,870.6067,514.2327,869.3677,519.7522,863.8482,518.5132,872.043,523.9763" style="stroke: #A80036; stroke-width: 1.0;"/><path d="M694.981,324.013 C700.934,356.903 723.276,419.214 743.048,472 C748.9,487.622 755.607,505.0002 762.825,519.0921 " fill="none" style="stroke: #A80036; stroke-width: 1.0; stroke-dasharray: 7.0,7.0;"/><polygon fill="#A80036" points="765.292,523.7379,764.6035,513.9131,762.9469,519.322,757.538,517.6653,765.292,523.7379" style="stroke: #A80036; stroke-width: 1.0;"/><path d="M718.116,324.013 C735.934,356.903 758.276,419.214 778.048,472 C783.849,487.486 790.49,504.6981 794.169,518.7238 " fill="none" style="stroke: #A80036; stroke-width: 1.0; stroke-dasharray: 7.0,7.0;"/><polygon fill="#A80036" points="795.384,523.7379,797.1526,514.0491,794.2068,518.8785,789.3775,515.9327,795.384,523.7379" style="stroke: #A80036; stroke-width: 1.0;"/><path d="M677.016,324.14 C667.11,333.382 654.516,343.003 641.048,348 C621.251,355.345 279.47,345.68 261.048,356 C245.989,364.436 235.39,380.585 228.482,394.915 " fill="none" style="stroke: #A80036; stroke-width: 1.0; stroke-dasharray: 7.0,7.0;"/><polygon fill="#A80036" points="226.28,399.691,233.6804,393.1922,228.3732,395.1502,226.4152,389.8431,226.28,399.691" style="stroke: #A80036; stroke-width: 1.0;"/><path d="M676.689,324.226 C666.813,333.364 654.333,342.88 641.048,348 C605.138,361.841 505.198,345.949 468.048,356 C436.137,364.633 403.157,382.136 378.667,397.087 " fill="none" style="stroke: #A80036; stroke-width: 1.0; stroke-dasharray: 7.0,7.0;"/><polygon fill="#A80036" points="374.195,399.846,383.9548,398.5244,378.4502,397.2206,379.7541,391.716,374.195,399.846" style="stroke: #A80036; stroke-width: 1.0;"/><path d="M676.309,324.189 C666.456,333.203 654.097,342.635 641.048,348 C604.726,362.935 586.622,335.626 553.048,356 C538.398,364.89 527.853,380.885 520.872,395.017 " fill="none" style="stroke: #A80036; stroke-width: 1.0; stroke-dasharray: 7.0,7.0;"/><polygon fill="#A80036" points="518.64,399.725,526.1089,393.3051,520.7813,395.2067,518.8797,389.8791,518.64,399.725" style="stroke: #A80036; stroke-width: 1.0;"/><path d="M679.194,324.234 C662.61,344.671 638.461,374.431 621.009,395.937 " fill="none" style="stroke: #A80036; stroke-width: 1.0; stroke-dasharray: 7.0,7.0;"/><polygon fill="#A80036" points="617.832,399.852,626.6084,395.3828,620.9821,395.9691,620.3958,390.3427,617.832,399.852" style="stroke: #A80036; stroke-width: 1.0;"/><path d="M725.571,324.24 C738.035,333.379 753.454,342.894 769.048,348 C804.146,359.493 903.174,337.346 935.048,356 C949.845,364.66 960.2,380.815 966.926,395.092 " fill="none" style="stroke: #A80036; stroke-width: 1.0; stroke-dasharray: 7.0,7.0;"/><polygon fill="#A80036" points="969.069,399.848,969.0181,389.9993,967.0147,395.2895,961.7245,393.2861,969.069,399.848" style="stroke: #A80036; stroke-width: 1.0;"/><path d="M727.304,324.204 C739.576,332.886 754.385,342.069 769.048,348 C787.069,355.289 794.848,346.943 812.048,356 C830.275,365.598 846.702,381.838 858.729,395.925 " fill="none" style="stroke: #A80036; stroke-width: 1.0; stroke-dasharray: 7.0,7.0;"/><polygon fill="#A80036" points="862.002,399.834,859.2917,390.3654,858.7924,396.0002,853.1576,395.5008,862.002,399.834" style="stroke: #A80036; stroke-width: 1.0;"/><path d="M669.425,204.228 C686.54,208.196 706.128,212.53 724.048,216 C768.237,224.557 780.741,219.739 824.048,232 C841.351,236.899 1113.06,341.046 1123.05,356 C1151.68,398.873 1153.54,430.426 1123.05,472 C1076.02,536.1333 974.049,546.854 920.121,547.7871 " fill="none" style="stroke: #A80036; stroke-width: 1.0; stroke-dasharray: 7.0,7.0;"/><polygon fill="#A80036" points="915.056,547.8483,924.1045,551.7374,920.0556,547.7869,924.0062,543.738,915.056,547.8483" style="stroke: #A80036; stroke-width: 1.0;"/><path d="M576.772,199.525 C556.695,204.841 534.883,214.49 522.048,232 C486.896,279.958 495.028,354.207 503.105,394.551 " fill="none" style="stroke: #A80036; stroke-width: 1.0; stroke-dasharray: 7.0,7.0;"/><polygon fill="#A80036" points="504.188,399.774,506.2763,390.1491,503.1723,394.8783,498.4431,391.7742,504.188,399.774" style="stroke: #A80036; stroke-width: 1.0;"/><path d="M614.152,216 C607.909,232.141 599.525,253.816 592.89,270.969 " fill="none" style="stroke: #A80036; stroke-width: 1.0; stroke-dasharray: 7.0,7.0;"/><polygon fill="#A80036" points="591.069,275.678,598.0448,268.7254,592.8716,271.0143,590.5828,265.8412,591.069,275.678" style="stroke: #A80036; stroke-width: 1.0;"/><path d="M639.322,216 C650.84,232.279 666.341,254.187 678.525,271.408 " fill="none" style="stroke: #A80036; stroke-width: 1.0; stroke-dasharray: 7.0,7.0;"/><polygon fill="#A80036" points="681.547,275.678,679.6144,266.0206,678.6592,271.5963,673.0836,270.6411,681.547,275.678" style="stroke: #A80036; stroke-width: 1.0;"/><path d="M669.429,199.655 C695.722,205.123 728.222,214.873 753.048,232 C806.536,268.901 785.055,316.785 842.048,348 C878.434,367.929 899.644,334.375 935.048,356 C949.574,364.873 959.881,380.866 966.649,395.003 " fill="none" style="stroke: #A80036; stroke-width: 1.0; stroke-dasharray: 7.0,7.0;"/><polygon fill="#A80036" points="968.809,399.712,968.6927,389.8638,966.7245,395.1672,961.4211,393.199,968.809,399.712" style="stroke: #A80036; stroke-width: 1.0;"/><path d="M826.076,194.096 C914.123,199.024 1115.61,224.782 1186.05,356 C1210.43,401.425 1217.79,431.376 1186.05,472 C1153.34,513.8554 992.314,535.7391 920.146,543.5775 " fill="none" style="stroke: #A80036; stroke-width: 1.0; stroke-dasharray: 7.0,7.0;"/><polygon fill="#A80036" points="915.106,544.1177,924.481,547.1358,920.0775,543.5848,923.6284,539.1813,915.106,544.1177" style="stroke: #A80036; stroke-width: 1.0;"/><path d="M793.68,216.319 C811.294,258.963 848.62,349.332 867.539,395.136 " fill="none" style="stroke: #A80036; stroke-width: 1.0; stroke-dasharray: 7.0,7.0;"/><polygon fill="#A80036" points="869.532,399.961,869.7911,390.1156,867.6222,395.3401,862.3977,393.1712,869.532,399.961" style="stroke: #A80036; stroke-width: 1.0;"/><path d="M826.12,198.352 C854.283,203.494 891.159,213.361 919.048,232 C983.3,274.94 1033.14,353.62 1056.5,395.335 " fill="none" style="stroke: #A80036; stroke-width: 1.0; stroke-dasharray: 7.0,7.0;"/><polygon fill="#A80036" points="1058.95,399.745,1058.0807,389.9346,1056.524,395.373,1051.0855,393.8162,1058.95,399.745" style="stroke: #A80036; stroke-width: 1.0;"/><path d="M765.387,216 C752.18,232.279 734.406,254.187 720.434,271.408 " fill="none" style="stroke: #A80036; stroke-width: 1.0; stroke-dasharray: 7.0,7.0;"/><polygon fill="#A80036" points="716.969,275.678,725.7454,271.2088,720.1191,271.7951,719.5328,266.1687,716.969,275.678" style="stroke: #A80036; stroke-width: 1.0;"/><path d="M741.846,204.199 C724.643,208.424 704.496,212.944 686.048,216 C614.234,227.898 592.513,210.243 523.048,232 C491.966,241.735 459.913,260.138 436.761,275.197 " fill="none" style="stroke: #A80036; stroke-width: 1.0; stroke-dasharray: 7.0,7.0;"/><polygon fill="#A80036" points="432.544,277.967,442.2624,276.3691,436.7231,275.2219,437.8702,269.6826,432.544,277.967" style="stroke: #A80036; stroke-width: 1.0;"/><path d="M826.129,214.123 C834.535,219.342 842.951,225.365 850.048,232 C902.318,280.869 943.782,355.241 963.856,395.234 " fill="none" style="stroke: #A80036; stroke-width: 1.0; stroke-dasharray: 7.0,7.0;"/><polygon fill="#A80036" points="966.198,399.937,965.7671,390.0976,963.9694,395.4612,958.6058,393.6634,966.198,399.937" style="stroke: #A80036; stroke-width: 1.0;"/><path d="M959.527,448.234 C944.18,468.586 921.86,498.184 905.659,519.6685 " fill="none" style="stroke: #A80036; stroke-width: 1.0; stroke-dasharray: 7.0,7.0;"/><polygon fill="#A80036" points="902.504,523.8521,911.1162,519.074,905.5142,519.8598,904.7285,514.2577,902.504,523.8521" style="stroke: #A80036; stroke-width: 1.0;"/><path d="M962.165,448.194 C955.096,457.209 945.826,466.64 935.048,472 C895.919,491.459 875.074,458.465 837.048,480 C821.499,488.806 809.698,504.9645 801.688,519.2065 " fill="none" style="stroke: #A80036; stroke-width: 1.0; stroke-dasharray: 7.0,7.0;"/><polygon fill="#A80036" points="799.117,523.9496,806.9227,517.9436,801.4998,519.5539,799.8896,514.1311,799.117,523.9496" style="stroke: #A80036; stroke-width: 1.0;"/></g></svg>